<svg width="250" height="44" viewBox="0 0 250 44" fill="none" xmlns="http://www.w3.org/2000/svg">
<path d="M8.66 43C6.22 43 4.32 42.36 2.96 41.08C1.6 39.76 0.92 37.96 0.92 35.68V2.8C0.92 2.04 1.12 1.46 1.52 1.06C1.92 0.619997 2.46 0.399998 3.14 0.399998C3.86 0.399998 4.42 0.619997 4.82 1.06C5.22 1.46 5.42 2.04 5.42 2.8V35.8C5.42 36.84 5.7 37.68 6.26 38.32C6.86 38.96 7.64 39.28 8.6 39.28H28.58C30.14 39.28 30.92 39.9 30.92 41.14C30.92 41.74 30.72 42.2 30.32 42.52C29.92 42.84 29.34 43 28.58 43H8.66ZM53.7055 43.6C49.6655 43.6 46.0255 42.72 42.7855 40.96C39.5455 39.16 36.9855 36.62 35.1055 33.34C33.2655 30.06 32.3455 26.28 32.3455 22C32.3455 17.68 33.2655 13.9 35.1055 10.66C36.9855 7.38 39.5455 4.86 42.7855 3.1C46.0255 1.3 49.6655 0.399998 53.7055 0.399998C57.7455 0.399998 61.3855 1.3 64.6255 3.1C67.8655 4.86 70.4055 7.38 72.2455 10.66C74.1255 13.9 75.0655 17.68 75.0655 22C75.0655 26.28 74.1255 30.06 72.2455 33.34C70.4055 36.62 67.8655 39.16 64.6255 40.96C61.3855 42.72 57.7455 43.6 53.7055 43.6ZM53.7055 39.76C56.9455 39.76 59.8255 39.06 62.3455 37.66C64.9055 36.26 66.9055 34.24 68.3455 31.6C69.8255 28.92 70.5655 25.72 70.5655 22C70.5655 18.24 69.8055 15.02 68.2855 12.34C66.8055 9.66 64.7655 7.64 62.1655 6.28C59.6055 4.92 56.7455 4.24 53.5855 4.24C50.3855 4.24 47.5055 4.94 44.9455 6.34C42.4255 7.74 40.4455 9.78 39.0055 12.46C37.5655 15.14 36.8455 18.32 36.8455 22C36.8455 25.72 37.5655 28.92 39.0055 31.6C40.4855 34.24 42.4855 36.26 45.0055 37.66C47.5655 39.06 50.4655 39.76 53.7055 39.76ZM100.164 43.6C96.6042 43.6 93.5042 42.9 90.8642 41.5C88.2642 40.1 86.2642 38.08 84.8642 35.44C83.4642 32.8 82.7642 29.66 82.7642 26.02V2.8C82.7642 2.04 82.9642 1.46 83.3642 1.06C83.7642 0.619997 84.3042 0.399998 84.9842 0.399998C85.7042 0.399998 86.2642 0.619997 86.6642 1.06C87.0642 1.46 87.2642 2.04 87.2642 2.8V26.2C87.2642 30.52 88.4042 33.86 90.6842 36.22C92.9642 38.58 96.1642 39.76 100.284 39.76C104.444 39.76 107.684 38.58 110.004 36.22C112.364 33.82 113.544 30.48 113.544 26.2V2.8C113.544 2.04 113.744 1.46 114.144 1.06C114.584 0.619997 115.144 0.399998 115.824 0.399998C116.544 0.399998 117.084 0.619997 117.444 1.06C117.844 1.46 118.044 2.04 118.044 2.8V26.02C118.044 29.54 117.324 32.64 115.884 35.32C114.444 37.96 112.364 40 109.644 41.44C106.964 42.88 103.804 43.6 100.164 43.6ZM135.103 43C132.663 43 130.763 42.36 129.403 41.08C128.043 39.76 127.363 37.96 127.363 35.68V8.2C127.363 5.96 128.023 4.2 129.343 2.92C130.703 1.64 132.583 0.999997 134.983 0.999997H149.203C153.243 0.999997 156.383 2 158.623 4C160.863 6 161.983 8.82 161.983 12.46C161.983 14.54 161.443 16.36 160.363 17.92C159.283 19.44 157.803 20.6 155.923 21.4V21.52C158.043 22.28 159.703 23.48 160.903 25.12C162.103 26.72 162.703 28.62 162.703 30.82C162.703 34.58 161.563 37.56 159.283 39.76C157.003 41.92 153.883 43 149.923 43H135.103ZM149.683 19.72C152.043 19.72 153.923 19.06 155.323 17.74C156.723 16.42 157.423 14.66 157.423 12.46C157.423 9.94 156.723 8.02 155.323 6.7C153.923 5.38 151.883 4.72 149.203 4.72H135.043C134.123 4.72 133.363 5.06 132.763 5.74C132.163 6.38 131.863 7.2 131.863 8.2V19.72H149.683ZM149.683 39.22C152.443 39.22 154.543 38.52 155.983 37.12C157.423 35.68 158.143 33.6 158.143 30.88C158.143 28.52 157.383 26.68 155.863 25.36C154.343 24.04 152.263 23.38 149.623 23.38H131.863V35.8C131.863 36.8 132.163 37.62 132.763 38.26C133.363 38.9 134.123 39.22 135.043 39.22H149.683ZM172.64 43.6C171.96 43.6 171.42 43.4 171.02 43C170.62 42.56 170.42 41.96 170.42 41.2V16.72C170.42 13.4 171.12 10.52 172.52 8.08C173.96 5.6 176 3.7 178.64 2.38C181.28 1.06 184.38 0.399998 187.94 0.399998C191.5 0.399998 194.58 1.06 197.18 2.38C199.82 3.7 201.84 5.6 203.24 8.08C204.68 10.52 205.4 13.4 205.4 16.72V41.2C205.4 41.96 205.2 42.56 204.8 43C204.44 43.4 203.9 43.6 203.18 43.6C202.5 43.6 201.94 43.4 201.5 43C201.1 42.56 200.9 41.96 200.9 41.2V16.54C200.9 12.66 199.76 9.64 197.48 7.48C195.2 5.32 192.02 4.24 187.94 4.24C183.94 4.24 180.76 5.34 178.4 7.54C176.08 9.74 174.92 12.74 174.92 16.54V41.2C174.92 41.96 174.72 42.56 174.32 43C173.92 43.4 173.36 43.6 172.64 43.6ZM216.587 43.6C215.907 43.6 215.367 43.4 214.967 43C214.567 42.56 214.367 41.96 214.367 41.2V17.74C214.367 12.3 215.887 8.06 218.927 5.02C222.007 1.94 226.267 0.399998 231.707 0.399998C237.107 0.399998 241.347 1.94 244.427 5.02C247.507 8.1 249.047 12.34 249.047 17.74V41.2C249.047 41.96 248.847 42.56 248.447 43C248.047 43.4 247.487 43.6 246.767 43.6C246.087 43.6 245.527 43.4 245.087 43C244.687 42.56 244.487 41.96 244.487 41.2V27.7H218.867V41.2C218.867 41.96 218.667 42.56 218.267 43C217.867 43.4 217.307 43.6 216.587 43.6ZM244.487 23.98V17.56C244.487 13.28 243.387 10 241.187 7.72C238.987 5.4 235.827 4.24 231.707 4.24C227.547 4.24 224.367 5.38 222.167 7.66C219.967 9.94 218.867 13.24 218.867 17.56V23.98H244.487Z" fill="#8E9691"/>
</svg>
