<svg width="172" height="53" viewBox="0 0 172 53" fill="none" xmlns="http://www.w3.org/2000/svg">
<g clip-path="url(#clip0)">
<g filter="url(#filter0_d)">
<path d="M42 34H51V37.0517H34.3129H38.5L38.5 12H42V34ZM112.082 27.8818C112.082 30.8751 111.191 33.2122 109.409 34.893C107.627 36.5625 105.139 37.3971 101.944 37.3971C99.1191 37.3971 96.8635 36.6199 95.1779 35.0657L94.8649 37.0517H92.5V12H95.1779L95.5633 20.0416C97.1685 18.6947 99.2796 18.0212 101.896 18.0212C105.075 18.0212 107.611 19.2382 109.409 20.919C111.223 22.5883 112.082 24.5661 112.082 27.6055V27.8818ZM105.123 27.5192C105.123 25.6311 104.706 24.2553 103.871 23.3918C103.036 22.5169 101.792 22.0794 100.138 22.0794C97.923 22.0794 96.3979 22.7299 95.5633 24.0308V31.4048C96.4141 32.7172 97.9552 33.3734 100.187 33.3734C102.434 33.3734 103.911 32.579 104.617 30.9903C104.954 30.2304 105.123 29.0734 105.123 27.5192Z" fill="#FBF3D6"/>
</g>
<g filter="url(#filter1_d)">
<ellipse cx="61.5" cy="28" rx="9.5" ry="10" fill="#FBF3D6"/>
</g>
<g filter="url(#filter2_i)">
<ellipse cx="61.5" cy="28" rx="4.5" ry="7" fill="white"/>
</g>
<g filter="url(#filter3_d)">
<rect x="115" y="18" width="3.25" height="19" fill="#FBF3D6"/>
<rect x="124.75" y="18" width="3.25" height="19" fill="#FBF3D6"/>
<rect width="2.10182" height="20.106" transform="matrix(0.969163 -0.246421 0.458992 0.88844 115.867 18.8275)" fill="#FBF3D6"/>
</g>
<g filter="url(#filter4_d)">
<rect x="87.5714" y="18" width="2.42857" height="14.7286" fill="#FBF3D6"/>
<rect x="73" y="18" width="2.42857" height="14.7286" fill="#FBF3D6"/>
<path d="M90 31.8689C90 34.7027 86.1944 37 81.5 37C76.8056 37 73 34.7027 73 31.8689C73 29.0351 76.8056 35.8372 81.5 35.8372C86.1944 35.8372 90 29.0351 90 31.8689Z" fill="#FBF3D6"/>
</g>
</g>
<g filter="url(#filter5_d)">
<path d="M146.654 29.711L148 34.0175L149 37.0938H144.369L140.203 19.9727L136.037 37.0938H132L133.769 29.6758L138 13H142.5L146.654 29.711Z" fill="#FBF3D6"/>
</g>
<rect x="136" y="25" width="8" height="4" fill="#FBF3D6"/>
<defs>
<filter id="filter0_d" x="30.3129" y="12" width="85.7693" height="33.3971" filterUnits="userSpaceOnUse" color-interpolation-filters="sRGB">
<feFlood flood-opacity="0" result="BackgroundImageFix"/>
<feColorMatrix in="SourceAlpha" type="matrix" values="0 0 0 0 0 0 0 0 0 0 0 0 0 0 0 0 0 0 127 0"/>
<feOffset dy="4"/>
<feGaussianBlur stdDeviation="2"/>
<feColorMatrix type="matrix" values="0 0 0 0 0 0 0 0 0 0 0 0 0 0 0 0 0 0 0.25 0"/>
<feBlend mode="normal" in2="BackgroundImageFix" result="effect1_dropShadow"/>
<feBlend mode="normal" in="SourceGraphic" in2="effect1_dropShadow" result="shape"/>
</filter>
<filter id="filter1_d" x="48" y="18" width="27" height="28" filterUnits="userSpaceOnUse" color-interpolation-filters="sRGB">
<feFlood flood-opacity="0" result="BackgroundImageFix"/>
<feColorMatrix in="SourceAlpha" type="matrix" values="0 0 0 0 0 0 0 0 0 0 0 0 0 0 0 0 0 0 127 0"/>
<feOffset dy="4"/>
<feGaussianBlur stdDeviation="2"/>
<feColorMatrix type="matrix" values="0 0 0 0 0 0 0 0 0 0 0 0 0 0 0 0 0 0 0.25 0"/>
<feBlend mode="normal" in2="BackgroundImageFix" result="effect1_dropShadow"/>
<feBlend mode="normal" in="SourceGraphic" in2="effect1_dropShadow" result="shape"/>
</filter>
<filter id="filter2_i" x="57" y="21" width="9" height="18" filterUnits="userSpaceOnUse" color-interpolation-filters="sRGB">
<feFlood flood-opacity="0" result="BackgroundImageFix"/>
<feBlend mode="normal" in="SourceGraphic" in2="BackgroundImageFix" result="shape"/>
<feColorMatrix in="SourceAlpha" type="matrix" values="0 0 0 0 0 0 0 0 0 0 0 0 0 0 0 0 0 0 127 0" result="hardAlpha"/>
<feOffset dy="4"/>
<feGaussianBlur stdDeviation="2"/>
<feComposite in2="hardAlpha" operator="arithmetic" k2="-1" k3="1"/>
<feColorMatrix type="matrix" values="0 0 0 0 0 0 0 0 0 0 0 0 0 0 0 0 0 0 0.25 0"/>
<feBlend mode="normal" in2="shape" result="effect1_innerShadow"/>
</filter>
<filter id="filter3_d" x="111" y="18" width="21" height="27" filterUnits="userSpaceOnUse" color-interpolation-filters="sRGB">
<feFlood flood-opacity="0" result="BackgroundImageFix"/>
<feColorMatrix in="SourceAlpha" type="matrix" values="0 0 0 0 0 0 0 0 0 0 0 0 0 0 0 0 0 0 127 0"/>
<feOffset dy="4"/>
<feGaussianBlur stdDeviation="2"/>
<feColorMatrix type="matrix" values="0 0 0 0 0 0 0 0 0 0 0 0 0 0 0 0 0 0 0.25 0"/>
<feBlend mode="normal" in2="BackgroundImageFix" result="effect1_dropShadow"/>
<feBlend mode="normal" in="SourceGraphic" in2="effect1_dropShadow" result="shape"/>
</filter>
<filter id="filter4_d" x="69" y="18" width="25" height="27" filterUnits="userSpaceOnUse" color-interpolation-filters="sRGB">
<feFlood flood-opacity="0" result="BackgroundImageFix"/>
<feColorMatrix in="SourceAlpha" type="matrix" values="0 0 0 0 0 0 0 0 0 0 0 0 0 0 0 0 0 0 127 0"/>
<feOffset dy="4"/>
<feGaussianBlur stdDeviation="2"/>
<feColorMatrix type="matrix" values="0 0 0 0 0 0 0 0 0 0 0 0 0 0 0 0 0 0 0.25 0"/>
<feBlend mode="normal" in2="BackgroundImageFix" result="effect1_dropShadow"/>
<feBlend mode="normal" in="SourceGraphic" in2="effect1_dropShadow" result="shape"/>
</filter>
<filter id="filter5_d" x="128" y="13" width="25" height="32.0938" filterUnits="userSpaceOnUse" color-interpolation-filters="sRGB">
<feFlood flood-opacity="0" result="BackgroundImageFix"/>
<feColorMatrix in="SourceAlpha" type="matrix" values="0 0 0 0 0 0 0 0 0 0 0 0 0 0 0 0 0 0 127 0"/>
<feOffset dy="4"/>
<feGaussianBlur stdDeviation="2"/>
<feColorMatrix type="matrix" values="0 0 0 0 0 0 0 0 0 0 0 0 0 0 0 0 0 0 0.25 0"/>
<feBlend mode="normal" in2="BackgroundImageFix" result="effect1_dropShadow"/>
<feBlend mode="normal" in="SourceGraphic" in2="effect1_dropShadow" result="shape"/>
</filter>
<clipPath id="clip0">
<rect width="157" height="43" fill="white"/>
</clipPath>
</defs>
</svg>
